<?xml version="1.0" encoding="UTF-8" standalone="no"?>
<svg width="80px" height="80px" viewBox="0 0 80 80" version="1.1" xmlns="http://www.w3.org/2000/svg" xmlns:xlink="http://www.w3.org/1999/xlink">
    <!-- Generator: Sketch 46.2 (44496) - http://www.bohemiancoding.com/sketch -->
    <title>Shape</title>
    <desc>Created with Sketch.</desc>
    <defs></defs>
    <g id="Page-1" stroke="none" stroke-width="1" fill="none" fill-rule="evenodd">
        <g id="checkmark" fill-rule="nonzero" fill="#7CAD42">
            <path d="M40,0 C17.944132,0 0,17.9437146 0,40 C0,62.0562854 17.944132,80.0004174 40,80.0004174 C62.055868,80.0004174 80,62.0562854 80,40 C80,17.9437146 62.0562854,0 40,0 Z M62.968706,33.2436635 L37.8387403,58.3736291 C36.7702149,59.4421546 35.3498273,60.030261 33.8388655,60.030261 C32.3279037,60.030261 30.9075162,59.4421546 29.8389907,58.3736291 L17.031294,45.5659324 C15.9627686,44.4974069 15.3742448,43.0770194 15.3742448,41.5660576 C15.3742448,40.0546785 15.9627686,38.6342909 17.031294,37.5657654 C18.0994021,36.49724 19.5197896,35.9087162 21.0311688,35.9087162 C22.5421306,35.9087162 23.9629355,36.49724 25.0310436,37.5661828 L33.8384481,46.37317 L54.9681216,25.2434965 C56.0366471,24.174971 57.4570346,23.5868646 58.9679964,23.5868646 C60.4789582,23.5868646 61.8993457,24.174971 62.9678712,25.2434965 C65.1742093,27.4498346 65.1742093,31.0381601 62.968706,33.2436635 Z" id="Shape"></path>
        </g>
    </g>
</svg>